<svg width="26" height="24" viewBox="0 0 26 24" fill="none" xmlns="http://www.w3.org/2000/svg">
<path d="M7.3877 4C7.3877 2.89543 8.33297 2 9.49902 2H15.833C16.9991 2 17.9443 2.89543 17.9443 4V6H20.0448C20.0513 5.99994 20.0578 5.99994 20.0644 6H22.167C22.75 6 23.2227 6.44772 23.2227 7C23.2227 7.55228 22.75 8 22.167 8H21.0386L20.123 20.1425C20.0441 21.1891 19.1247 22 18.0171 22H7.31498C6.2073 22 5.28794 21.1891 5.20902 20.1425L4.29342 8H3.16504C2.58201 8 2.10938 7.55228 2.10938 7C2.10938 6.44772 2.58201 6 3.16504 6H5.26765C5.2742 5.99994 5.28074 5.99994 5.28726 6H7.3877V4ZM9.49902 6H15.833V4H9.49902V6ZM6.41013 8L7.31498 20H18.0171L18.9219 8H6.41013ZM10.5547 10C11.1377 10 11.6104 10.4477 11.6104 11V17C11.6104 17.5523 11.1377 18 10.5547 18C9.97166 18 9.49902 17.5523 9.49902 17V11C9.49902 10.4477 9.97166 10 10.5547 10ZM14.7773 10C15.3604 10 15.833 10.4477 15.833 11V17C15.833 17.5523 15.3604 18 14.7773 18C14.1943 18 13.7217 17.5523 13.7217 17V11C13.7217 10.4477 14.1943 10 14.7773 10Z" fill="#DC3545"/>
</svg>
