<svg width="25" height="25" viewBox="0 0 25 25" fill="none" xmlns="http://www.w3.org/2000/svg">
<path d="M12.5 4.16665C10.1988 4.16665 8.33333 6.03213 8.33333 8.33331C8.33333 10.6345 10.1988 12.5 12.5 12.5C14.8012 12.5 16.6667 10.6345 16.6667 8.33331C16.6667 6.03213 14.8012 4.16665 12.5 4.16665ZM6.25 8.33331C6.25 4.88153 9.04822 2.08331 12.5 2.08331C15.9518 2.08331 18.75 4.88153 18.75 8.33331C18.75 11.7851 15.9518 14.5833 12.5 14.5833C9.04822 14.5833 6.25 11.7851 6.25 8.33331ZM8.33333 18.75C6.60744 18.75 5.20833 20.1491 5.20833 21.875C5.20833 22.4503 4.74196 22.9166 4.16667 22.9166C3.59137 22.9166 3.125 22.4503 3.125 21.875C3.125 18.9985 5.45685 16.6666 8.33333 16.6666H16.6667C19.5431 16.6666 21.875 18.9985 21.875 21.875C21.875 22.4503 21.4086 22.9166 20.8333 22.9166C20.258 22.9166 19.7917 22.4503 19.7917 21.875C19.7917 20.1491 18.3926 18.75 16.6667 18.75H8.33333Z" fill="#324552"/>
</svg>
