<svg width="24" height="24" viewBox="0 0 24 24" fill="none" xmlns="http://www.w3.org/2000/svg">
<path d="M21.7071 11.2929C22.0976 11.6834 22.0976 12.3166 21.7071 12.7071L18.7071 15.7071C18.3166 16.0976 17.6834 16.0976 17.2929 15.7071C16.9024 15.3166 16.9024 14.6834 17.2929 14.2929L18.5858 13H9C8.44771 13 8 12.5523 8 12C8 11.4477 8.44771 11 9 11H18.5858L17.2929 9.70711C16.9024 9.31658 16.9024 8.68342 17.2929 8.29289C17.6834 7.90237 18.3166 7.90237 18.7071 8.29289L21.7071 11.2929ZM13 4C14.1046 4 15 4.89543 15 6V8C15 8.55228 14.5523 9 14 9C13.4477 9 13 8.55228 13 8V6L4 6V18H13V16C13 15.4477 13.4477 15 14 15C14.5523 15 15 15.4477 15 16V18C15 19.1046 14.1046 20 13 20H4C2.89543 20 2 19.1046 2 18V6C2 4.89543 2.89543 4 4 4H13Z" fill="white"/>
</svg>
