<svg width="24" height="25" viewBox="0 0 24 25" fill="none" xmlns="http://www.w3.org/2000/svg">
<g clip-path="url(#clip0_80_3360)">
<path d="M7.07812 16.0625V19.8125C7.07812 20.2008 7.39294 20.5156 7.78125 20.5156H17.1563C17.5446 20.5156 17.8594 20.2008 17.8594 19.8125V16.0625C17.8594 15.6742 17.5446 15.3594 17.1563 15.3594H7.78125C7.39289 15.3594 7.07812 15.6742 7.07812 16.0625ZM8.48438 16.7656H16.4531V19.1094H8.48438V16.7656Z" fill="white"/>
<path d="M22.263 10.0146C22.202 9.96903 22.1349 9.93448 22.0647 9.91109C22.0728 9.82142 22.0769 9.73119 22.0769 9.64062C22.0769 9.05084 21.9041 8.48141 21.5918 7.99658C22.4562 7.454 23.0144 6.49583 23.0144 5.42188C23.0144 3.74183 21.6476 2.375 19.9676 2.375C19.8116 2.375 19.6566 2.38719 19.5033 2.41138C19.052 1.28061 17.9535 0.5 16.6864 0.5C15.4355 0.5 14.3408 1.25816 13.878 2.375H13.8739C12.2539 2.375 10.9256 3.64602 10.8327 5.24309C10.1404 5.35395 9.48299 5.62803 8.91575 6.04062L7.54391 3.66453C6.57467 1.9858 4.4203 1.40853 2.74147 2.37772C1.06269 3.347 0.485423 5.50133 1.4547 7.18016L3.01325 9.87969C2.89152 9.89352 2.77339 9.93894 2.67186 10.0147C2.47278 10.1634 2.36694 10.406 2.39342 10.653C2.62766 12.8393 2.86583 15.086 3.09617 17.2589C3.28588 19.0483 3.47558 20.8378 3.66528 22.6147C3.78003 23.6895 4.68172 24.5 5.76275 24.5H19.1718C20.2531 24.5 21.1549 23.6891 21.2693 22.6138L22.5418 10.6525C22.568 10.4055 22.4621 10.1631 22.263 10.0146ZM13.8739 3.78125C13.9858 3.78125 14.1026 3.79517 14.231 3.82377C14.4182 3.86539 14.6144 3.82878 14.774 3.72238C14.9337 3.61592 15.0428 3.44886 15.0763 3.25995C15.215 2.47559 15.8922 1.90625 16.6864 1.90625C17.5173 1.90625 18.2133 2.53433 18.3054 3.36725C18.3301 3.59108 18.4606 3.78955 18.6562 3.90102C18.8519 4.01248 19.0892 4.02345 19.2943 3.93055C19.513 3.8315 19.7395 3.78125 19.9676 3.78125C20.8723 3.78125 21.6082 4.51723 21.6082 5.42188C21.6082 6.21702 21.038 6.89422 20.2523 7.03217C19.9723 7.08134 19.7495 7.29425 19.6876 7.5717C19.6257 7.84916 19.737 8.13655 19.9696 8.3C20.4086 8.60853 20.6707 9.10972 20.6707 9.64067C20.6707 9.88344 20.6149 10.1224 20.5091 10.3426C18.8973 10.926 17.2394 11.3292 15.5495 11.55C15.6487 11.3418 15.7313 11.1259 15.7973 10.9046C17.6013 8.25467 17.846 5.59484 17.8557 5.4815C17.8886 5.09459 17.6015 4.75423 17.2146 4.72133C16.8278 4.68908 16.4874 4.97544 16.4545 5.36239C16.453 5.37941 16.3428 6.5765 15.7112 8.10758C15.1642 6.62061 13.8453 5.50381 12.2429 5.24487C12.3315 4.42316 13.029 3.78125 13.8739 3.78125V3.78125ZM11.5301 6.59375C13.2102 6.59375 14.577 7.96058 14.577 9.64062C14.577 10.4226 14.2868 11.1503 13.7566 11.715C13.3285 11.738 12.8989 11.75 12.4676 11.75C12.3821 11.75 12.2966 11.7493 12.2112 11.7485L9.62474 7.26861C10.1628 6.83553 10.835 6.59375 11.5301 6.59375V6.59375ZM2.46181 4.87639C2.60764 4.33217 2.95667 3.8773 3.4446 3.59553C4.45185 3.01405 5.74447 3.36036 6.32605 4.36766L6.92909 5.41217L4.92589 5.53241C4.53824 5.55566 4.24288 5.88875 4.26613 6.27636C4.28853 6.64967 4.59824 6.93739 4.96733 6.93739C4.98153 6.93739 4.99578 6.93697 5.01013 6.93613L7.71519 6.7738L8.33534 7.84794L6.33214 7.96817C5.94453 7.99142 5.64917 8.32456 5.67242 8.71213C5.69483 9.08544 6.00458 9.37316 6.37363 9.37316C6.38783 9.37316 6.40208 9.37273 6.41642 9.37189L9.12144 9.20952L10.5433 11.6724C8.6622 11.5205 6.81613 11.1454 5.02414 10.5503L2.67256 6.47703C2.3908 5.98911 2.31599 5.42066 2.46181 4.87639V4.87639ZM19.871 22.465C19.8328 22.8234 19.5322 23.0938 19.1718 23.0938H5.76275C5.40238 23.0938 5.10181 22.8236 5.06356 22.4655C4.87391 20.6888 4.68425 18.8997 4.4946 17.1107C4.30442 15.3168 4.10891 13.4724 3.91466 11.6532C6.6598 12.6511 9.5315 13.1562 12.4676 13.1562C15.4041 13.1562 18.2758 12.6511 21.0212 11.6529L19.871 22.465Z" fill="white"/>
</g>
<defs>
<clipPath id="clip0_80_3360">
<rect width="24" height="24" fill="white" transform="translate(0 0.5)"/>
</clipPath>
</defs>
</svg>
